<?xml version="1.0" encoding="UTF-8"?>
<svg id="Layer_1" xmlns="http://www.w3.org/2000/svg" version="1.1" viewBox="0 0 800 800">
  <!-- Generator: Adobe Illustrator 29.1.0, SVG Export Plug-In . SVG Version: 2.1.0 Build 142)  -->
  <defs>
    <style>
      .st0 {
        fill: currentColor;
        fill-rule: evenodd;
      }
    </style>
  </defs>
  <path class="st0" d="M376.4,723.5l23.6-23.5-23.6,23.5ZM400,700l23.6,23.5c-13,13-34.1,13.1-47.1,0,0,0,0,0,0,0l-.2-.2-.6-.6-2.1-2.1c-11.8-12.1-23.3-24.4-34.7-36.9-28.5-31.3-55.8-63.6-81.9-96.9-29.7-38.3-60.1-81.7-83.2-124.5-22.6-42-40.4-87.4-40.4-129,0-151.3,119.7-266.7,266.7-266.7s266.7,115.4,266.7,266.7-17.8,87.1-40.4,129c-23.1,42.9-53.5,86.2-83.2,124.5-36.4,46.7-75.3,91.3-116.5,133.8l-2.1,2.1-.6.6-.2.2-23.6-23.5ZM400,433.3c55.2,0,100-44.8,100-100s-44.8-100-100-100-100,44.8-100,100,44.8,100,100,100Z"/>
</svg>
